<?xml version="1.0" encoding="UTF-8" standalone="no"?><!DOCTYPE svg PUBLIC "-//W3C//DTD SVG 1.1//EN" "http://www.w3.org/Graphics/SVG/1.1/DTD/svg11.dtd"><svg width="100%" height="100%" viewBox="0 0 9255 3576" version="1.1" xmlns="http://www.w3.org/2000/svg" xmlns:xlink="http://www.w3.org/1999/xlink" xml:space="preserve" xmlns:serif="http://www.serif.com/" style="fill-rule:evenodd;clip-rule:evenodd;stroke-linejoin:round;stroke-miterlimit:2;"><rect id="Page-1" serif:id="Page 1" x="0" y="0" width="9254.167" height="3575.521" style="fill:none;"/><clipPath id="_clip1"><rect x="0" y="0" width="9254.167" height="3575.521"/></clipPath><g clip-path="url(#_clip1)"><g id="Camada-1" serif:id="Camada 1"><path d="M2199.305,2991.518c168.438,183.672 357.708,377.669 612.839,519.727c-352.201,27.331 -704.076,50.495 -1047.63,-22.878c-351.159,-74.935 -693.841,-250.742 -1019.258,-626.237c-266.276,-327.135 -290.599,-878.711 -749.948,-1279.219c286.562,-113.229 549.414,-67.474 699.453,302.396c89.831,269.792 221.471,439.049 413.06,514.948c106.536,134.557 231.029,257.617 354.297,379.44c137.396,135.82 273.06,269.74 370.599,409.44l-0.273,0.299c41.276,59.102 122.852,73.49 181.979,32.214c16.25,-11.497 29.049,-25.755 38.242,-41.862c41.068,-63.88 91.198,-126.354 146.641,-188.268m-321.406,-1751.471c-75.456,-56.992 -151.445,-96.589 -226.172,-121.25c150.703,-329.648 358.763,-649.583 451.302,-1009.466c15.534,-3.906 29.479,-4.466 42.018,-2.174c22.708,4.18 41.862,17.982 56.237,38.698c16.979,24.036 28.19,57.409 32.513,96.536c22.721,206.966 -230.69,770.638 -355.898,997.656m-195.521,-938.958c39.57,-91.94 72.513,-182.995 95.521,-272.617c18.711,-4.883 35.833,-5.625 51.224,-2.891l0,-0.273c26.185,4.74 48.333,20.716 65.156,44.883c19.154,27.344 31.797,65.026 36.693,109.049c7.904,71.51 -5.182,157.682 -44.31,244.141l-0.417,1.589c-94.661,229.74 -200.911,452.539 -314.062,673.008c-21.276,-4.141 -42.396,-7.096 -63.307,-8.945c-68.828,-6.172 -135.078,-0.247 -197.5,15.781c111.133,-241.315 358.555,-611.016 371.003,-803.724m-1004.74,1315.625l143.151,209.023c2.917,-12.174 5.846,-24.049 8.789,-35.69c-9.193,-138.997 27.786,-276.953 98.099,-392.734c58.542,-96.38 140.703,-178.516 238.815,-233.906c9.922,-5.612 20.013,-10.951 30.247,-16.003c99.609,-178.503 285.052,-485.156 383.789,-724.74c70.195,-169.622 32.799,-302.852 -76.836,-330.299c-14.531,-3.763 -31.211,-4.036 -49.635,-0.586c-84.727,257.083 -234.049,478.776 -380.938,696.862c-178.398,264.714 -353.177,524.245 -395.482,828.073m1602.344,-1132.057l-5.469,12.383l0,-0.143l-10.794,26.185c-13.945,41.419 -32.773,87.174 -54.805,135.651l-56.25,139.557c-70.951,177.018 -145.677,363.385 -194.596,476.172c91.081,-77.07 183.385,-128.047 273.841,-157.188l4.622,-12.995c42.161,-118.828 84.609,-237.943 112.943,-306.719l0.43,-1.302c31.081,-68.893 41.732,-137.383 35.404,-194.219c-3.75,-34.505 -13.542,-63.724 -28.359,-84.87c-12.357,-17.826 -28.62,-29.479 -47.604,-32.956l0,0.156c-9.062,-1.563 -18.711,-1.445 -29.362,0.286" style="fill:#009355;"/><path d="M1939.466,3114.475c260.534,-410.443 832.396,-729.961 965.169,-1240.964c118.398,-455.612 -444.518,-982.292 -965.169,-398.945c-520.651,-583.346 -1083.581,-56.667 -965.169,398.945c132.773,511.003 678.008,830.521 965.169,1240.964" style="fill:#fff;"/><path d="M1939.466,1474.57c-520.651,-583.346 -1083.581,-56.667 -965.169,398.945c132.773,511.003 678.008,830.521 965.169,1240.964c260.534,-410.443 832.396,-729.961 965.169,-1240.964c81.003,-311.706 -156.927,-656.667 -482.005,-656.693c-150.091,-0.013 -318.724,73.503 -483.164,257.747Z" style="fill:url(#_Linear2);fill-rule:nonzero;"/><path d="M9222.66,1617.576l0,126.901l-242.682,0l0,-117.982c0,-92.799 -28.646,-139.115 -85.755,-139.115c-49.922,0 -74.948,25.456 -74.948,76.68l0,60.716c0,61.862 35.104,122.565 105.456,181.979l189.049,146.458c67.904,59.427 101.693,115.964 101.693,169.479l0,142.852c0,133.359 -107.044,199.805 -321.25,199.805c-217.669,0 -326.615,-86.172 -326.615,-258.646l0,-139.414l255.273,0l0,203.581c0,42.852 23.737,64.128 71.341,64.128c54.818,0 82.07,-29.609 82.07,-89.167l0,-82.005c0,-39.414 -36.224,-88.177 -108.971,-146.302l-189.023,-148.19c-67.904,-62.018 -101.732,-122.565 -101.732,-181.979l0,-125.156c0,-131.94 105.964,-198.086 317.656,-198.086c107.122,0 185.599,16.094 235.495,48.177c62.018,39.284 92.943,107.617 92.943,205.286m-744.336,819.297l-248.021,0l0,-1042.266l248.021,0l0,1042.266Zm-340.951,-244.583c0,163.32 -110.638,244.583 -331.966,244.583l-312.331,0l0,-1042.266l314.128,0c220.117,0 330.169,81.992 330.169,246.133l0,551.549Zm-249.896,50.078l0,-658.737c0,-45.169 -37.409,-67.76 -112.357,-67.76l-33.945,0l0,794.258l33.945,0c74.948,0 112.357,-22.435 112.357,-67.76m-489.128,192.773l-247.943,0l0,-367.852c0,-58.125 -41.159,-87.318 -123.229,-87.318l-17.826,0l0,455.169l-249.753,0l0,-867.487c0,-70.182 37.969,-123.711 114.076,-160.547c60.56,-28.477 129.635,-42.995 207.018,-42.995c77.383,0 145.885,14.518 205.299,42.995c74.935,37.982 112.357,91.484 112.357,160.547l0,187.305c0,100 -62.93,154.219 -189.102,162.565c126.172,10.638 189.102,60.729 189.102,149.766l0,367.852Zm-235.378,-680.182l0,-132.07c0,-86.888 -27.044,-130.169 -80.417,-130.169c-48.763,0 -73.203,20.703 -73.203,62.435l0,306.992l1.797,0c101.185,0 151.823,-35.677 151.823,-107.188m-496.315,505.273c0,70.182 -38.125,123.698 -114.297,160.664c-58.333,29.635 -127.383,44.453 -206.927,44.453c-79.792,0 -148.789,-14.818 -207.122,-44.453c-77.318,-38.125 -116.016,-91.784 -116.016,-160.664l0,-692.578c0,-69.062 38.698,-122.565 116.016,-160.547c58.333,-28.477 127.331,-42.995 207.122,-42.995c77.253,0 146.224,14.518 206.927,42.995c76.172,36.836 114.297,90.365 114.297,160.547l0,692.578Zm-248.086,5.312l0,-710.391c0,-42.878 -24.466,-64.323 -73.138,-64.323c-48.919,0 -73.229,21.445 -73.229,64.323l0,710.391c0,44.023 24.31,66.029 73.229,66.029c48.672,0 73.138,-22.005 73.138,-66.029m-481.953,-647.969l0,162.422l-249.935,0l0,-230.169c0,-42.878 -23.919,-64.31 -71.367,-64.31c-47.617,0 -71.367,21.432 -71.367,64.31l0,715.716c0,44.023 23.75,66.029 71.367,66.029c47.448,0 71.367,-22.005 71.367,-66.029l0,-233.932l249.935,0l0,228.62c0,136.784 -107.174,205.117 -321.302,205.117c-214.232,0 -321.315,-68.333 -321.315,-205.117l0,-698.034c0,-131.94 107.083,-198.086 321.315,-198.086c214.128,0 321.302,84.414 321.302,253.464m-733.594,642.656c0,70.182 -38.151,123.698 -114.245,160.664c-58.333,29.635 -127.318,44.453 -207.005,44.453c-79.792,0 -148.789,-14.818 -207.109,-44.453c-77.292,-38.125 -116.003,-91.784 -116.003,-160.664l0,-692.578c0,-69.062 38.711,-122.565 116.003,-160.547c58.32,-28.477 127.318,-42.995 207.109,-42.995c77.318,0 146.224,14.518 207.005,42.995c76.094,36.836 114.245,90.365 114.245,160.547l0,692.578Zm-248.138,5.312l0,-710.391c0,-42.878 -24.492,-64.323 -73.112,-64.323c-48.932,0 -73.229,21.445 -73.229,64.323l0,710.391c0,44.023 24.297,66.029 73.229,66.029c48.62,0 73.112,-22.005 73.112,-66.029m-487.331,169.596l-248.008,0l0,-367.852c0,-58.125 -41.146,-87.318 -123.294,-87.318l-17.839,0l0,455.169l-249.896,0l0,-867.487c0,-70.182 38.125,-123.711 114.245,-160.547c60.703,-28.477 129.753,-42.995 207.005,-42.995c77.552,0 145.872,14.518 205.43,42.995c74.974,37.982 112.357,91.484 112.357,160.547l0,187.305c0,100 -63.151,154.219 -189.18,162.565c126.029,10.638 189.18,60.729 189.18,149.766l0,367.852Zm-235.638,-680.182l0,-132.07c0,-86.888 -26.615,-130.169 -80.299,-130.169c-48.75,0 -73.203,20.703 -73.203,62.435l0,306.992l1.862,0c101.146,0 151.641,-35.677 151.641,-107.188m-469.44,89.336c0,28.633 -10.065,60.143 -30.352,94.674c-57.096,93.932 -159.544,140.833 -306.992,140.833l-24.883,0c-14.232,0 -23.307,-0.56 -26.758,-1.576l0,358.646l-250.039,0l0,-869.219c0,-69.062 38.685,-122.565 116.068,-160.547c58.281,-28.477 127.331,-42.995 207.057,-42.995c76.107,0 143.997,14.518 203.398,42.995c74.974,37.982 112.5,91.484 112.5,160.547l0,276.641Zm-235.482,-221.406c0,-86.888 -26.901,-130.169 -80.417,-130.169c-48.633,0 -73.086,20.703 -73.086,62.435l0,396.341l7.044,0c97.526,0 146.458,-30.951 146.458,-92.943l0,-235.664Z" style="fill:#009355;"/><g transform="matrix(625.640625,0,0,625.640625,8236.591417,1143.61849)"></g><text x="4124.361px" y="1143.618px" style="font-family:'Helvetica-Bold', 'Helvetica';font-weight:700;font-size:625.641px;fill:#c0202c;">A<tspan x="4561.894px 4964.906px 5367.919px 5840.278px 6277.811px 6437.349px 6874.882px 7312.415px 7749.948px " y="1143.618px 1143.618px 1143.618px 1143.618px 1143.618px 1143.618px 1143.618px 1143.618px 1143.618px ">SSOCIAÇÃO</tspan></text><g transform="matrix(375.388021,0,0,375.388021,9083.482833,2986.677083)"></g><text x="3251.533px" y="2986.677px" style="font-family:'Helvetica-Bold', 'Helvetica';font-weight:700;font-size:375.388px;fill:#c0202c;">A<tspan x="3514.607px 3732.029px 4008.85px 4198.261px 4461.335px 4678.758px 4955.579px 5144.99px 5408.064px 5613.009px 5910.726px 6144.235px 6421.056px 6623.568px 6886.642px 7104.065px 7380.886px 7570.297px 7833.371px 8050.793px 8181.528px 8386.473px 8642.582px 8833.102px " y="2986.677px 2986.677px 2986.677px 2986.677px 2986.677px 2986.677px 2986.677px 2986.677px 2986.677px 2986.677px 2986.677px 2986.677px 2986.677px 2986.677px 2986.677px 2986.677px 2986.677px 2986.677px 2986.677px 2986.677px 2986.677px 2986.677px 2986.677px 2986.677px "> R A R A Q U A R A - S P</tspan></text></g></g><defs><linearGradient id="_Linear2" x1="0" y1="0" x2="1" y2="0" gradientUnits="userSpaceOnUse" gradientTransform="matrix(0,2167.148438,-2223.255208,0,3051.08724,919.277344)"><stop offset="0" style="stop-color:#ed1c24;stop-opacity:1"/><stop offset="0.16" style="stop-color:#ed1c24;stop-opacity:1"/><stop offset="0.23" style="stop-color:#e51c24;stop-opacity:1"/><stop offset="0.27" style="stop-color:#de1c23;stop-opacity:1"/><stop offset="0.34" style="stop-color:#d71d24;stop-opacity:1"/><stop offset="0.44" style="stop-color:#cc1c22;stop-opacity:1"/><stop offset="0.47" style="stop-color:#cb1c23;stop-opacity:1"/><stop offset="0.52" style="stop-color:#c61c22;stop-opacity:1"/><stop offset="0.54" style="stop-color:#c41c22;stop-opacity:1"/><stop offset="0.6" style="stop-color:#bf1c21;stop-opacity:1"/><stop offset="0.63" style="stop-color:#bb1c21;stop-opacity:1"/><stop offset="0.67" style="stop-color:#b91c21;stop-opacity:1"/><stop offset="0.71" style="stop-color:#b41c21;stop-opacity:1"/><stop offset="0.75" style="stop-color:#b11b20;stop-opacity:1"/><stop offset="0.78" style="stop-color:#af1b20;stop-opacity:1"/><stop offset="0.79" style="stop-color:#ae1b20;stop-opacity:1"/><stop offset="0.84" style="stop-color:#a91b1f;stop-opacity:1"/><stop offset="0.87" style="stop-color:#a71a1f;stop-opacity:1"/><stop offset="0.91" style="stop-color:#a31b1f;stop-opacity:1"/><stop offset="0.95" style="stop-color:#a01a1d;stop-opacity:1"/><stop offset="0.98" style="stop-color:#9f1a1e;stop-opacity:1"/><stop offset="1" style="stop-color:#9c1a1d;stop-opacity:1"/></linearGradient></defs></svg>